<mxfile host="app.diagrams.net" agent="Mozilla/5.0 (Macintosh; Intel Mac OS X 10_15_7) AppleWebKit/537.36 (KHTML, like Gecko) Chrome/131.0.0.0 Safari/537.36" version="25.0.3">
  <diagram name="Page-1" id="SsrnoutQnXabE9va70Cc">
    <mxGraphModel dx="1274" dy="1888" grid="1" gridSize="10" guides="1" tooltips="1" connect="1" arrows="1" fold="1" page="1" pageScale="1" pageWidth="827" pageHeight="1169" math="0" shadow="0">
      <root>
        <mxCell id="0" />
        <mxCell id="1" parent="0" />
        <mxCell id="bDXXekkd5-EwSkiZ4GkZ-29" value="&lt;div&gt;&lt;br&gt;&lt;/div&gt;&lt;div&gt;&lt;span style=&quot;background-color: initial;&quot;&gt;N KDA Apps&lt;/span&gt;&lt;/div&gt;" style="rounded=0;whiteSpace=wrap;html=1;" vertex="1" parent="1">
          <mxGeometry x="847" y="550" width="185" height="90" as="geometry" />
        </mxCell>
        <mxCell id="bDXXekkd5-EwSkiZ4GkZ-7" value="" style="rounded=0;whiteSpace=wrap;html=1;" vertex="1" parent="1">
          <mxGeometry x="525" y="-150" width="130" height="275" as="geometry" />
        </mxCell>
        <mxCell id="bDXXekkd5-EwSkiZ4GkZ-3" style="edgeStyle=orthogonalEdgeStyle;rounded=0;orthogonalLoop=1;jettySize=auto;html=1;entryX=0;entryY=0.5;entryDx=0;entryDy=0;" edge="1" parent="1" source="bDXXekkd5-EwSkiZ4GkZ-1" target="bDXXekkd5-EwSkiZ4GkZ-2">
          <mxGeometry relative="1" as="geometry" />
        </mxCell>
        <mxCell id="bDXXekkd5-EwSkiZ4GkZ-1" value="Producer Applications&lt;div&gt;1&lt;/div&gt;&lt;div&gt;2&lt;/div&gt;&lt;div&gt;3&lt;/div&gt;&lt;div&gt;.&lt;/div&gt;&lt;div&gt;.&lt;/div&gt;&lt;div&gt;.&lt;/div&gt;&lt;div&gt;&lt;br&gt;&lt;/div&gt;" style="rounded=0;whiteSpace=wrap;html=1;" vertex="1" parent="1">
          <mxGeometry x="50" y="150" width="110" height="170" as="geometry" />
        </mxCell>
        <mxCell id="bDXXekkd5-EwSkiZ4GkZ-2" value="ECS Service&lt;div&gt;at&lt;/div&gt;&lt;div&gt;&lt;span style=&quot;color: rgb(31, 31, 31); font-family: system-ui, sans-serif; text-align: start; background-color: rgb(255, 255, 255);&quot;&gt;analytics.chegg.com/rio-service-web&lt;/span&gt;&lt;/div&gt;" style="rounded=0;whiteSpace=wrap;html=1;" vertex="1" parent="1">
          <mxGeometry x="260" y="185" width="170" height="100" as="geometry" />
        </mxCell>
        <mxCell id="bDXXekkd5-EwSkiZ4GkZ-6" style="edgeStyle=orthogonalEdgeStyle;rounded=0;orthogonalLoop=1;jettySize=auto;html=1;entryX=0.5;entryY=0;entryDx=0;entryDy=0;" edge="1" parent="1" source="bDXXekkd5-EwSkiZ4GkZ-4" target="bDXXekkd5-EwSkiZ4GkZ-1">
          <mxGeometry relative="1" as="geometry" />
        </mxCell>
        <mxCell id="bDXXekkd5-EwSkiZ4GkZ-4" value="Rio SDK" style="ellipse;whiteSpace=wrap;html=1;" vertex="1" parent="1">
          <mxGeometry x="38" y="20" width="135" height="70" as="geometry" />
        </mxCell>
        <mxCell id="bDXXekkd5-EwSkiZ4GkZ-8" value="Shard1" style="rounded=0;whiteSpace=wrap;html=1;" vertex="1" parent="1">
          <mxGeometry x="540" y="-120" width="100" height="35" as="geometry" />
        </mxCell>
        <mxCell id="bDXXekkd5-EwSkiZ4GkZ-9" value="Shard2" style="rounded=0;whiteSpace=wrap;html=1;" vertex="1" parent="1">
          <mxGeometry x="540" y="-60" width="100" height="35" as="geometry" />
        </mxCell>
        <mxCell id="bDXXekkd5-EwSkiZ4GkZ-10" value="Shard3" style="rounded=0;whiteSpace=wrap;html=1;" vertex="1" parent="1">
          <mxGeometry x="540" width="100" height="35" as="geometry" />
        </mxCell>
        <mxCell id="bDXXekkd5-EwSkiZ4GkZ-11" value="Shard3" style="rounded=0;whiteSpace=wrap;html=1;" vertex="1" parent="1">
          <mxGeometry x="540" y="60" width="100" height="35" as="geometry" />
        </mxCell>
        <mxCell id="bDXXekkd5-EwSkiZ4GkZ-15" value="AWS Managed&lt;div&gt;Kinesis Stream&lt;/div&gt;" style="text;html=1;align=center;verticalAlign=middle;resizable=0;points=[];autosize=1;strokeColor=none;fillColor=none;" vertex="1" parent="1">
          <mxGeometry x="540" y="106" width="100" height="40" as="geometry" />
        </mxCell>
        <mxCell id="bDXXekkd5-EwSkiZ4GkZ-16" value="Prpducer uses the SDK to&lt;div&gt;publish the events to ECS service&lt;/div&gt;" style="text;html=1;align=center;verticalAlign=middle;resizable=0;points=[];autosize=1;strokeColor=none;fillColor=none;" vertex="1" parent="1">
          <mxGeometry x="90" y="100" width="200" height="40" as="geometry" />
        </mxCell>
        <mxCell id="bDXXekkd5-EwSkiZ4GkZ-17" value="Publish event" style="text;html=1;align=center;verticalAlign=middle;resizable=0;points=[];autosize=1;strokeColor=none;fillColor=none;" vertex="1" parent="1">
          <mxGeometry x="160" y="205" width="100" height="30" as="geometry" />
        </mxCell>
        <mxCell id="bDXXekkd5-EwSkiZ4GkZ-18" value="Raw events in S3 bucket in parquet format" style="shape=cylinder3;whiteSpace=wrap;html=1;boundedLbl=1;backgroundOutline=1;size=15;" vertex="1" parent="1">
          <mxGeometry x="1000" y="-70" width="135" height="90" as="geometry" />
        </mxCell>
        <mxCell id="bDXXekkd5-EwSkiZ4GkZ-37" style="edgeStyle=orthogonalEdgeStyle;rounded=0;orthogonalLoop=1;jettySize=auto;html=1;" edge="1" parent="1" source="bDXXekkd5-EwSkiZ4GkZ-19" target="bDXXekkd5-EwSkiZ4GkZ-18">
          <mxGeometry relative="1" as="geometry" />
        </mxCell>
        <mxCell id="bDXXekkd5-EwSkiZ4GkZ-19" value="Kinesis Firehose/ ETL" style="rounded=0;whiteSpace=wrap;html=1;" vertex="1" parent="1">
          <mxGeometry x="760" y="-49" width="170" height="50" as="geometry" />
        </mxCell>
        <mxCell id="bDXXekkd5-EwSkiZ4GkZ-22" value="" style="endArrow=none;dashed=1;html=1;rounded=0;" edge="1" parent="1">
          <mxGeometry width="50" height="50" relative="1" as="geometry">
            <mxPoint x="60" y="440" as="sourcePoint" />
            <mxPoint x="830" y="440" as="targetPoint" />
          </mxGeometry>
        </mxCell>
        <mxCell id="bDXXekkd5-EwSkiZ4GkZ-23" value="Multiple Apache Flink / KDA applications/ Consume KCL" style="rounded=0;whiteSpace=wrap;html=1;" vertex="1" parent="1">
          <mxGeometry x="730" y="590" width="160" height="100" as="geometry" />
        </mxCell>
        <mxCell id="bDXXekkd5-EwSkiZ4GkZ-28" value="Adobe System" style="shape=cube;whiteSpace=wrap;html=1;boundedLbl=1;backgroundOutline=1;darkOpacity=0.05;darkOpacity2=0.1;" vertex="1" parent="1">
          <mxGeometry x="730" y="770" width="180" height="50" as="geometry" />
        </mxCell>
        <mxCell id="bDXXekkd5-EwSkiZ4GkZ-33" style="edgeStyle=orthogonalEdgeStyle;rounded=0;orthogonalLoop=1;jettySize=auto;html=1;" edge="1" parent="1" source="bDXXekkd5-EwSkiZ4GkZ-29" target="bDXXekkd5-EwSkiZ4GkZ-32">
          <mxGeometry relative="1" as="geometry" />
        </mxCell>
        <mxCell id="bDXXekkd5-EwSkiZ4GkZ-31" style="edgeStyle=orthogonalEdgeStyle;rounded=0;orthogonalLoop=1;jettySize=auto;html=1;entryX=0;entryY=0;entryDx=80;entryDy=0;entryPerimeter=0;" edge="1" parent="1" source="bDXXekkd5-EwSkiZ4GkZ-23" target="bDXXekkd5-EwSkiZ4GkZ-28">
          <mxGeometry relative="1" as="geometry" />
        </mxCell>
        <mxCell id="bDXXekkd5-EwSkiZ4GkZ-32" value="Other Systems ..." style="shape=cube;whiteSpace=wrap;html=1;boundedLbl=1;backgroundOutline=1;darkOpacity=0.05;darkOpacity2=0.1;" vertex="1" parent="1">
          <mxGeometry x="942" y="770" width="180" height="50" as="geometry" />
        </mxCell>
        <mxCell id="bDXXekkd5-EwSkiZ4GkZ-36" style="edgeStyle=orthogonalEdgeStyle;rounded=0;orthogonalLoop=1;jettySize=auto;html=1;entryX=1.025;entryY=0.459;entryDx=0;entryDy=0;entryPerimeter=0;" edge="1" parent="1" source="bDXXekkd5-EwSkiZ4GkZ-19" target="bDXXekkd5-EwSkiZ4GkZ-7">
          <mxGeometry relative="1" as="geometry" />
        </mxCell>
        <mxCell id="bDXXekkd5-EwSkiZ4GkZ-38" style="edgeStyle=orthogonalEdgeStyle;rounded=0;orthogonalLoop=1;jettySize=auto;html=1;entryX=0.004;entryY=0.409;entryDx=0;entryDy=0;entryPerimeter=0;" edge="1" parent="1" source="bDXXekkd5-EwSkiZ4GkZ-2" target="bDXXekkd5-EwSkiZ4GkZ-7">
          <mxGeometry relative="1" as="geometry" />
        </mxCell>
      </root>
    </mxGraphModel>
  </diagram>
</mxfile>
